<svg width="316" height="320" viewBox="0 0 316 320" fill="none" xmlns="http://www.w3.org/2000/svg">
<path d="M241.823 293.641C241.823 307.823 231.2 319.309 218.081 319.309H66.7273C53.6221 319.309 42.9951 307.818 42.9951 293.641V62.1993C42.9951 48.0037 53.6268 36.5181 66.7273 36.5181H218.081C231.2 36.5181 241.823 48.0037 241.823 62.1993V293.641Z" fill="#00519D"/>
<path d="M143.391 71.7683C143.391 74.4645 138.017 76.6456 131.418 76.6456H54.9821C48.3646 76.6456 43 74.4645 43 71.7683V27.868C43 25.1811 48.3599 23 54.9821 23H131.418C138.017 23 143.391 25.1811 143.391 27.868V71.7683Z" fill="#00519D"/>
<path d="M253.665 282.875C253.665 294.908 242.936 304.64 229.687 304.64H76.7369C63.5065 304.64 52.7588 294.903 52.7588 282.875V86.7158C52.7588 74.6919 63.5065 64.9512 76.7369 64.9512H229.687C242.936 64.9512 253.665 74.6965 253.665 86.7158V282.875Z" fill="#D0D2D3"/>
<path d="M253.665 267.533C253.665 279.566 242.936 289.298 229.687 289.298H76.7369C63.5065 289.298 52.7588 279.562 52.7588 267.533V71.3739C52.7588 59.35 63.5065 49.6187 76.7369 49.6187H229.687C242.936 49.6187 253.665 59.3547 253.665 71.3739V267.533Z" fill="#006837"/>
<path d="M200.011 61.4244C200.011 62.8723 192.874 64.051 184.094 64.051H82.4642C73.6656 64.051 66.5283 62.8723 66.5283 61.4244V37.7804C66.5283 36.3186 73.6656 35.1538 82.4642 35.1538H184.094C192.874 35.1538 200.011 36.3186 200.011 37.7804V61.4244Z" fill="#D0D2D3"/>
<path d="M93.1378 106.67H225.683C234.603 106.67 234.603 94.1408 225.683 94.1408H93.1378C84.251 94.1408 84.251 106.67 93.1378 106.67ZM93.1378 132.124H225.683C234.603 132.124 234.603 119.604 225.683 119.604H93.1378C84.251 119.604 84.251 132.124 93.1378 132.124ZM93.1378 158.135H225.683C234.603 158.135 234.603 145.605 225.683 145.605H93.1378C84.251 145.605 84.251 158.135 93.1378 158.135ZM93.1378 183.566H225.683C234.603 183.566 234.603 171.045 225.683 171.045H93.1378C84.251 171.045 84.251 183.566 93.1378 183.566ZM93.1378 232.663H154.153C163.044 232.663 163.044 220.138 154.153 220.138H93.1378C84.251 220.134 84.251 232.663 93.1378 232.663Z" fill="white"/>
<path d="M266 100.003C293.614 100.003 316 77.6163 316 50.0013C316 22.3863 293.614 0 266 0C238.386 0 216 22.3863 216 50.0013C216 77.6163 238.386 100.003 266 100.003Z" fill="#4ECB71"/>
<path d="M266 91.669C289.012 91.669 307.666 73.0137 307.666 50.0012C307.666 26.9888 289.012 8.33347 266 8.33347C242.988 8.33347 224.333 26.9888 224.333 50.0012C224.333 73.0137 242.988 91.669 266 91.669Z" fill="#4ECB71"/>
<path d="M256.108 71.8964C256.008 71.8964 255.908 71.894 255.808 71.8891C254.923 71.8467 254.057 71.6144 253.271 71.2082C252.485 70.8021 251.796 70.2316 251.252 69.536L242.668 58.5625C241.668 57.2818 241.22 55.6592 241.423 54.0507C241.625 52.4421 242.46 50.979 243.746 49.9822L244.055 49.7432C245.343 48.7494 246.976 48.3043 248.594 48.5053C250.212 48.7063 251.683 49.5371 252.686 50.8154C253.17 51.4339 253.782 51.9412 254.482 52.3025C255.181 52.6638 255.951 52.8706 256.738 52.9088C257.525 52.9469 258.311 52.8155 259.042 52.5236C259.774 52.2316 260.433 51.786 260.975 51.2172L278.406 32.9235C278.962 32.3406 279.627 31.8721 280.365 31.5449C281.103 31.2176 281.898 31.0381 282.705 31.0164C283.513 30.9947 284.316 31.1314 285.071 31.4185C285.825 31.7057 286.515 32.1378 287.101 32.6901L287.386 32.9582C288.57 34.0735 289.26 35.6107 289.304 37.2317C289.348 38.8527 288.742 40.4247 287.62 41.6019L260.572 69.9869C259.998 70.5902 259.306 71.0707 258.538 71.399C257.771 71.7274 256.944 71.8966 256.108 71.8964Z" fill="white"/>
</svg>
